<?xml version="1.0" standalone="no"?>
<!DOCTYPE svg PUBLIC "-//W3C//DTD SVG 20010904//EN"
 "http://www.w3.org/TR/2001/REC-SVG-20010904/DTD/svg10.dtd">
<svg version="1.0" xmlns="http://www.w3.org/2000/svg"
 width="600.000000pt" height="600.000000pt" viewBox="0 0 600.000000 600.000000"
 preserveAspectRatio="xMidYMid meet">
<metadata>
Created by potrace 1.11, written by Peter Selinger 2001-2013
</metadata>
<g transform="translate(0.000000,600.000000) scale(0.100000,-0.100000)"
fill="#000000" stroke="none">
<path d="M2798 5995 c-2 -1 -34 -5 -73 -9 -619 -53 -1221 -311 -1695 -725
-133 -117 -297 -290 -390 -411 -19 -25 -38 -49 -43 -55 -40 -49 -138 -198
-200 -303 -36 -62 -162 -320 -172 -352 -4 -14 -11 -29 -15 -35 -25 -33 -135
-417 -160 -560 -5 -33 -12 -69 -14 -80 -41 -216 -41 -706 -1 -925 3 -14 10
-53 15 -87 6 -34 12 -68 15 -75 2 -7 6 -24 9 -38 16 -98 103 -367 165 -515
195 -459 528 -890 931 -1202 70 -54 293 -207 298 -204 1 1 29 -14 62 -33 77
-45 269 -138 362 -175 119 -47 350 -118 443 -137 280 -56 401 -69 660 -69 169
0 357 9 387 20 7 2 33 6 58 9 41 4 126 19 175 30 396 87 719 223 1045 439 260
173 462 358 695 638 30 35 137 188 165 234 13 22 27 42 30 45 25 21 179 325
232 460 72 180 141 412 163 550 3 19 8 42 10 50 2 8 6 38 10 65 3 28 11 82 17
120 14 91 18 484 7 600 -40 406 -136 739 -318 1100 -224 445 -585 850 -1011
1133 -141 93 -157 103 -345 196 -144 71 -197 93 -330 138 -33 11 -69 23 -80
28 -11 5 -31 11 -45 14 -14 4 -65 17 -115 31 -101 26 -280 61 -370 71 -33 3
-69 8 -80 11 -22 5 -491 13 -497 8z"/>
</g>
</svg>
